<svg width="20" height="21" viewBox="0 0 20 21" fill="none" xmlns="http://www.w3.org/2000/svg">
<path d="M10.6554 4.35254L10.4918 13.698H9.41907L9.27362 4.35254H10.6554ZM10.0191 17.1525C9.7524 17.1525 9.52816 17.0616 9.34634 16.8798C9.17665 16.698 9.0918 16.4738 9.0918 16.2071C9.0918 15.9404 9.17665 15.7222 9.34634 15.5525C9.52816 15.3707 9.7524 15.2798 10.0191 15.2798C10.2736 15.2798 10.4857 15.3707 10.6554 15.5525C10.8373 15.7222 10.9282 15.9404 10.9282 16.2071C10.9282 16.4738 10.8373 16.698 10.6554 16.8798C10.4857 17.0616 10.2736 17.1525 10.0191 17.1525Z" fill="#B4B4B4"/>
<circle cx="10" cy="10.7158" r="9.5" stroke="#B4B4B4"/>
</svg>
